<?xml version="1.0" standalone="no"?>
<!DOCTYPE svg PUBLIC "-//W3C//DTD SVG 20010904//EN"
 "http://www.w3.org/TR/2001/REC-SVG-20010904/DTD/svg10.dtd">
<svg version="1.0" xmlns="http://www.w3.org/2000/svg"
 width="279.000000pt" height="1350.000000pt" viewBox="0 0 279.000000 1350.000000"
 preserveAspectRatio="xMidYMid meet">
<metadata>
Created by potrace 1.10, written by Peter Selinger 2001-2011
</metadata>
<g transform="translate(0.000000,1350.000000) scale(0.100000,-0.100000)"
fill="#000000" stroke="none">
<path d="M1056 12794 c-10 -9 -16 -33 -16 -62 0 -34 -8 -60 -30 -94 -51 -81
-108 -111 -290 -152 -148 -34 -210 -57 -246 -94 -58 -60 -58 -147 1 -206 65
-65 164 -96 308 -96 50 0 98 -4 105 -8 10 -7 12 -1164 12 -5755 0 -3715 3
-5755 10 -5772 l10 -25 452 2 453 3 2 5765 c3 5406 4 5766 20 5778 10 7 51 12
107 12 92 1 171 15 237 44 108 46 151 176 84 249 -28 29 -120 75 -167 83 -43
7 -137 30 -220 56 -112 33 -181 110 -195 215 -3 27 -10 54 -16 61 -7 9 -81 12
-308 12 -257 0 -300 -2 -313 -16z m692 -941 l-3 -218 -375 0 -375 0 -3 218 -2
217 380 0 380 0 -2 -217z m-3 -908 l0 -590 -375 0 -375 0 -3 580 c-1 319 0
586 3 593 3 10 84 12 377 10 l373 -3 0 -590z m3 -1647 l2 -958 -380 0 -380 0
0 960 0 960 378 -2 377 -3 3 -957z m-3 -2018 l0 -955 -377 -3 -378 -2 0 960 0
960 378 -2 377 -3 0 -955z m3 -1952 l-3 -893 -375 0 -375 0 -3 893 -2 892 380
0 380 0 -2 -892z m-14 -994 c14 -6 16 -94 16 -895 l0 -889 -376 -2 c-207 -2
-378 -1 -380 1 -7 7 -4 1777 3 1784 8 9 716 9 737 1z m14 -2396 l2 -508 -380
0 -380 0 0 510 0 510 378 -2 377 -3 3 -507z m-32 -604 l34 -6 0 -359 0 -359
-380 0 c-297 0 -380 3 -380 13 -3 194 0 700 4 706 7 10 670 15 722 5z"/>
<path d="M1464 9725 c-75 -33 -124 -130 -124 -243 0 -162 84 -275 192 -258 45
7 73 31 114 96 27 43 29 51 29 155 0 121 -14 165 -72 215 -59 52 -85 59 -139
35z m86 -107 c23 -25 30 -44 36 -95 13 -124 -20 -207 -79 -201 -48 5 -77 62
-77 156 0 78 15 121 54 154 29 24 33 23 66 -14z"/>
<path d="M1318 7920 c-50 -27 -86 -76 -109 -152 -23 -76 -24 -107 -4 -173 33
-108 76 -162 138 -172 49 -7 77 1 113 34 45 42 63 76 79 152 13 63 13 78 -1
138 -18 82 -56 140 -109 170 -48 27 -60 28 -107 3z m89 -102 c71 -80 50 -287
-30 -296 -36 -4 -53 10 -77 64 -24 53 -25 120 -3 176 30 78 71 99 110 56z"/>
<path d="M1345 7161 c-134 -56 -171 -327 -60 -450 65 -71 120 -79 184 -25 70
60 86 102 86 224 0 118 -15 164 -69 213 -48 45 -94 57 -141 38z m85 -109 c49
-49 53 -196 8 -270 -28 -45 -63 -41 -100 13 -24 35 -27 50 -28 115 0 77 18
127 58 158 23 17 30 15 62 -16z"/>
<path d="M1275 6006 c-34 -34 -48 -59 -64 -114 -26 -84 -26 -99 -4 -187 15
-59 26 -78 65 -117 43 -44 51 -48 93 -48 84 0 144 67 169 185 34 163 -50 325
-169 325 -41 0 -50 -5 -90 -44z m128 -63 c23 -27 47 -102 47 -153 0 -80 -41
-160 -81 -160 -30 0 -65 54 -78 120 -11 53 -10 68 5 113 28 86 71 119 107 80z"/>
<path d="M1299 5095 c-43 -28 -71 -73 -93 -148 -20 -69 -20 -104 0 -175 31
-108 85 -161 162 -162 45 0 57 4 88 33 46 41 61 70 78 151 20 97 -8 220 -62
274 -57 57 -114 66 -173 27z m108 -87 c41 -46 57 -161 32 -234 -18 -52 -37
-74 -66 -74 -70 0 -118 154 -76 247 22 49 52 83 73 83 9 0 26 -10 37 -22z"/>
<path d="M1294 4142 c-43 -31 -75 -88 -95 -170 -21 -83 13 -214 70 -271 25
-25 75 -51 97 -51 73 0 145 84 168 197 13 60 13 76 0 135 -36 158 -144 230
-240 160z m118 -89 c40 -48 51 -145 26 -222 -38 -113 -103 -112 -142 3 -21 63
-20 116 1 163 25 55 43 73 73 73 15 0 34 -8 42 -17z"/>
<path d="M1299 3355 c-20 -13 -45 -39 -56 -58 -24 -40 -53 -134 -53 -170 0
-50 33 -153 62 -193 37 -52 69 -69 125 -68 36 1 51 7 79 35 46 44 61 74 78
156 13 59 13 77 0 133 -15 67 -35 111 -63 139 -56 56 -114 64 -172 26z m105
-86 c59 -70 61 -217 3 -291 -31 -39 -75 -12 -110 65 -30 67 -14 168 36 225 26
28 47 28 71 1z"/>
</g>
</svg>
